HIERARCHY
ROOT Hips
{
	OFFSET 0.00000 0.00000 0.00000
	CHANNELS 6 Xposition Yposition Zposition Zrotation Yrotation Xrotation 
	JOINT LHipJoint
	{
		OFFSET 0 0 0
		CHANNELS 3 Zrotation Yrotation Xrotation
		JOINT LeftUpLeg
		{
			OFFSET 1.46561 -1.72757 0.83774
			CHANNELS 3 Zrotation Yrotation Xrotation
			JOINT LeftLeg
			{
				OFFSET 2.48915 -6.83890 0.00000
				CHANNELS 3 Zrotation Yrotation Xrotation
				JOINT LeftFoot
				{
					OFFSET 2.60555 -7.15868 0.00000
					CHANNELS 3 Zrotation Yrotation Xrotation
					JOINT LeftToeBase
					{
						OFFSET 0.19248 -0.52884 2.26738
						CHANNELS 3 Zrotation Yrotation Xrotation
						End Site
						{
							OFFSET 0.00000 -0.00000 1.17015
						}
					}
				}
			}
		}
	}
	JOINT RHipJoint
	{
		OFFSET 0 0 0
		CHANNELS 3 Zrotation Yrotation Xrotation
		JOINT RightUpLeg
		{
			OFFSET -1.46918 -1.72757 0.83774
			CHANNELS 3 Zrotation Yrotation Xrotation
			JOINT RightLeg
			{
				OFFSET -2.49034 -6.84216 0.00000
				CHANNELS 3 Zrotation Yrotation Xrotation
				JOINT RightFoot
				{
					OFFSET -2.65971 -7.30750 0.00000
					CHANNELS 3 Zrotation Yrotation Xrotation
					JOINT RightToeBase
					{
						OFFSET -0.19227 -0.52827 2.30785
						CHANNELS 3 Zrotation Yrotation Xrotation
						End Site
						{
							OFFSET -0.00000 -0.00000 1.18972
						}
					}
				}
			}
		}
	}
	JOINT LowerBack
	{
		OFFSET 0 0 0
		CHANNELS 3 Zrotation Yrotation Xrotation
		JOINT Spine
		{
			OFFSET 0.02432 2.19909 -0.28000
			CHANNELS 3 Zrotation Yrotation Xrotation
			JOINT Spine1
			{
				OFFSET 0.03714 2.21816 -0.15261
				CHANNELS 3 Zrotation Yrotation Xrotation
				JOINT Neck
				{
					OFFSET 0 0 0
					CHANNELS 3 Zrotation Yrotation Xrotation
					JOINT Neck1
					{
						OFFSET -0.01896 1.56165 0.21681
						CHANNELS 3 Zrotation Yrotation Xrotation
						JOINT Head
						{
							OFFSET 0.02744 1.56009 0.06764
							CHANNELS 3 Zrotation Yrotation Xrotation
							End Site
							{
								OFFSET 0.01212 1.60574 0.00298
							}
						}
					}
				}
				JOINT LeftShoulder
				{
					OFFSET 0 0 0
					CHANNELS 3 Zrotation Yrotation Xrotation
					JOINT LeftArm
					{
						OFFSET 3.05595 1.48048 -0.60794
						CHANNELS 3 Zrotation Yrotation Xrotation
						JOINT LeftForeArm
						{
							OFFSET 5.20607 -0.00000 -0.00000
							CHANNELS 3 Zrotation Yrotation Xrotation
							JOINT LeftHand
							{
								OFFSET 3.39961 -0.00000 0.00000
								CHANNELS 3 Zrotation Yrotation Xrotation
								JOINT LeftFingerBase
								{
									OFFSET 0 0 0
									CHANNELS 3 Zrotation Yrotation Xrotation
									JOINT LeftHandIndex1
									{
										OFFSET 0.51969 -0.00000 0.00000
										CHANNELS 3 Zrotation Yrotation Xrotation
										End Site
										{
											OFFSET 0.41899 -0.00000 0.00000
										}
									}
								}
								JOINT LThumb
								{
									OFFSET 0 0 0
									CHANNELS 3 Zrotation Yrotation Xrotation
									End Site
									{
										OFFSET 0.42539 -0.00000 0.42539
									}
								}
							}
						}
					}
				}
				JOINT RightShoulder
				{
					OFFSET 0 0 0
					CHANNELS 3 Zrotation Yrotation Xrotation
					JOINT RightArm
					{
						OFFSET -2.99052 1.57608 -0.69102
						CHANNELS 3 Zrotation Yrotation Xrotation
						JOINT RightForeArm
						{
							OFFSET -5.32214 -0.00000 0.00000
							CHANNELS 3 Zrotation Yrotation Xrotation
							JOINT RightHand
							{
								OFFSET -3.51208 -0.00000 0.00000
								CHANNELS 3 Zrotation Yrotation Xrotation
								JOINT RightFingerBase
								{
									OFFSET 0 0 0
									CHANNELS 3 Zrotation Yrotation Xrotation
									JOINT RightHandIndex1
									{
										OFFSET -0.58668 -0.00000 0.00000
										CHANNELS 3 Zrotation Yrotation Xrotation
										End Site
										{
											OFFSET -0.47300 -0.00000 0.00000
										}
									}
								}
								JOINT RThumb
								{
									OFFSET 0 0 0
									CHANNELS 3 Zrotation Yrotation Xrotation
									End Site
									{
										OFFSET -0.48022 -0.00000 0.48022
									}
								}
							}
						}
					}
				}
			}
		}
	}
}
MOTION
Frames: 8
Frame Time: .0083333
0.748 17.5183 -14.1078 0 0 0 0 0 0 -21 0 0 0 0 0 0 0 0 0 0 0 0 0 0 21 0 0 0 0 0 0 0 0 0 0 0 0 0 0 0 0 0 0 0 0 0 0 -16 0 0 21 0 0 11 0 0 0 -8 0 0 0 0 0 0 0 0 0 0 0 0 0 0 0 0 0 0 0 0 8 0 0 0 0 0 0 0 0 0 0 0 0 0 0 0 0 0
0.7480 17.5183 -14.1078 -0.5852 -1.7806 5.2846 0.0000 0.0000 0.0000 -20.0392 3.6118 -14.2332 1.2248 7.0193 19.7724 0.4841 -1.2635 -12.7659 0.1458 2.4606 6.7805 0.0000 0.0000 0.0000 17.5864 3.7666 -14.2077 -1.7539 -8.3334 23.7314 -0.6322 2.8772 -14.3152 -0.3283 -3.6823 10.1847 -1.3408 -0.8033 -1.6251 1.3104 -1.0777 4.1273 2.0423 -0.6208 5.2288 -1.8424 0.7691 -12.8345 0.8654 1.3056 33.4059 0.8561 0.4395 13.3475 -0.0000 -0.0000 0.0000 -85.7628 -10.5160 20.0381 8.3824 -14.1708 -1.0437 -0.0000 -0.0000 2.3006 26.2434 -2.8909 -1.4243 -7.1250 0.0000 -0.0000 -0.2735 26.7572 0.1211 -0.0000 -0.0000 0.0000 89.0442 4.9932 12.2519 -13.5180 22.0414 -2.6445 0.0000 0.0000 30.1343 -20.2960 -24.9092 8.8536 7.1250 -0.0000 -0.0000 10.0759 -56.0364 -2.7476
0.7389 17.5210 -14.1068 -0.5586 -1.7867 5.3095 0.0000 0.0000 0.0000 -20.0447 3.5575 -14.1949 1.2156 6.9938 19.6970 0.4793 -1.1381 -12.7324 0.1439 2.4445 6.7359 0.0000 0.0000 0.0000 17.5880 3.6167 -14.2938 -1.7523 -8.3298 23.7202 -0.6241 3.0220 -14.1999 -0.3290 -3.6866 10.1966 -1.3653 -0.7903 -1.6404 1.3171 -1.0597 4.1573 2.0639 -0.6136 5.2689 -1.8329 0.7576 -12.9010 0.8295 1.3003 33.3712 0.8398 0.4341 13.3477 0.0000 -0.0000 0.0000 -85.8421 -10.5411 19.9668 8.3939 -14.1893 -1.0466 -0.0000 -0.0000 2.2240 26.1175 -2.6902 -1.3182 -7.1250 0.0000 -0.0000 -0.3667 26.9841 0.1604 0.0000 -0.0000 0.0000 88.9744 5.0701 12.3198 -13.4898 22.0006 -2.6339 0.0000 0.0000 30.1725 -20.2180 -24.9069 8.8164 7.1250 -0.0000 -0.0000 10.1566 -56.0182 -2.7655
0.7293 17.5231 -14.1056 -0.5592 -1.8023 5.3270 0.0000 0.0000 0.0000 -20.0174 3.4922 -14.1428 1.2085 6.9740 19.6384 0.4779 -1.0015 -12.7492 0.1432 2.4386 6.7195 0.0000 0.0000 0.0000 17.6187 3.5413 -14.3220 -1.7472 -8.3184 23.6854 -0.6171 3.1218 -14.1041 -0.3391 -3.7419 10.3518 -1.3628 -0.7669 -1.6413 1.3186 -1.0286 4.1798 2.0659 -0.5985 5.2915 -1.8255 0.7435 -12.9098 0.8077 1.2854 33.3068 0.8271 0.4265 13.3223 -0.0000 0.0000 0.0000 -85.9042 -10.5474 19.8160 8.4103 -14.2158 -1.0506 -0.0000 -0.0000 2.4631 25.7110 -2.3944 -1.1524 -7.1250 0.0000 -0.0000 -0.6750 27.3224 0.2899 -0.0000 0.0000 0.0000 88.9460 5.1679 12.2461 -13.4201 21.8996 -2.6079 0.0000 0.0000 30.3080 -20.2809 -24.7879 8.8068 7.1250 -0.0000 -0.0000 10.0366 -55.9102 -2.7060
0.7198 17.5260 -14.1043 -0.5547 -1.7921 5.3435 0.0000 0.0000 0.0000 -19.9909 3.4177 -14.0988 1.2018 6.9553 19.5830 0.4747 -0.8936 -12.7357 0.1428 2.4358 6.7117 0.0000 0.0000 0.0000 17.6523 3.4550 -14.3466 -1.7425 -8.3077 23.6527 -0.6135 3.1935 -14.0531 -0.3347 -3.7182 10.2851 -1.3291 -0.7403 -1.6119 1.3004 -0.9938 4.1708 2.0307 -0.5790 5.2626 -1.8243 0.7381 -12.9002 0.8552 1.2615 33.3173 0.8421 0.4227 13.3246 0.0000 -0.0000 0.0000 -85.9415 -10.4542 20.2055 8.4589 -14.2940 -1.0626 -0.0000 -0.0000 1.8941 26.0978 -2.6910 -1.3175 -7.1250 0.0000 -0.0000 -0.3818 26.9837 0.1670 0.0000 -0.0000 0.0000 88.9158 5.1535 12.2434 -13.3973 21.8666 -2.5994 0.0000 0.0000 30.3635 -20.2263 -24.8282 8.7946 7.1250 -0.0000 -0.0000 10.1120 -55.9400 -2.7339
0.7101 17.5283 -14.1035 -0.5507 -1.7708 5.3651 0.0000 0.0000 0.0000 -19.9643 3.3445 -14.0722 1.1971 6.9424 19.5447 0.4725 -0.7983 -12.7314 0.1419 2.4276 6.6890 0.0000 0.0000 0.0000 17.6860 3.3617 -14.3783 -1.7369 -8.2950 23.6139 -0.6086 3.2616 -13.9875 -0.3356 -3.7228 10.2982 -1.3117 -0.7238 -1.5869 1.2938 -0.9723 4.1706 2.0156 -0.5674 5.2465 -1.8196 0.7259 -12.9132 0.8675 1.2389 33.3027 0.8428 0.4154 13.3214 -0.0000 0.0000 0.0000 -85.9933 -10.4022 20.3981 8.4934 -14.3495 -1.0711 -0.0000 -0.0000 1.6554 26.1446 -2.7412 -1.3448 -7.1250 0.0000 -0.0000 -0.3467 26.9266 0.1521 -0.0000 0.0000 0.0000 88.8744 5.1738 12.2460 -13.3677 21.8236 -2.5884 0.0000 0.0000 30.4266 -20.2055 -24.8223 8.7830 7.1250 -0.0000 -0.0000 10.1310 -55.9297 -2.7366
0.7002 17.5302 -14.1029 -0.5536 -1.7317 5.3894 0.0000 0.0000 0.0000 -19.9284 3.2703 -14.0559 1.1932 6.9314 19.5124 0.4702 -0.7214 -12.7228 0.1402 2.4131 6.6489 0.0000 0.0000 0.0000 17.7300 3.2768 -14.4062 -1.7310 -8.2818 23.5733 -0.6048 3.3033 -13.9379 -0.3362 -3.7263 10.3078 -1.2875 -0.7123 -1.5514 1.2899 -0.9580 4.1631 1.9992 -0.5588 5.2172 -1.8165 0.7138 -12.9277 0.8823 1.2163 33.2966 0.8448 0.4082 13.3222 -0.0000 -0.0000 0.0000 -86.0459 -10.3366 20.6512 8.5343 -14.4151 -1.0812 -0.0000 -0.0000 1.3895 26.2079 -2.8251 -1.3898 -7.1250 0.0000 -0.0000 -0.2996 26.8315 0.1321 -0.0000 -0.0000 0.0000 88.8283 5.1798 12.2558 -13.3440 21.7892 -2.5796 0.0000 0.0000 30.4778 -20.1851 -24.8257 8.7746 7.1250 -0.0000 -0.0000 10.1539 -55.9289 -2.7427
0.6902 17.5319 -14.1027 -0.5603 -1.6757 5.4174 0.0000 0.0000 0.0000 -19.8872 3.1931 -14.0563 1.1914 6.9262 19.4970 0.4683 -0.6616 -12.7141 0.1374 2.3891 6.5823 0.0000 0.0000 0.0000 17.7801 3.1998 -14.4347 -1.7256 -8.2695 23.5357 -0.6022 3.3204 -13.9042 -0.3365 -3.7279 10.3125 -1.2641 -0.7068 -1.5070 1.2920 -0.9519 4.1484 1.9891 -0.5544 5.1756 -1.8137 0.7025 -12.9469 0.8915 1.1969 33.2999 0.8453 0.4015 13.3281 -0.0000 -0.0000 0.0000 -86.1078 -10.2595 20.9483 8.5823 -14.4923 -1.0932 -0.0000 -0.0000 1.1042 26.2720 -2.9239 -1.4424 -7.1250 0.0000 -0.0000 -0.2522 26.7197 0.1119 -0.0000 -0.0000 0.0000 88.7686 5.1713 12.2844 -13.3283 21.7664 -2.5738 0.0000 0.0000 30.5097 -20.1650 -24.8433 8.7710 7.1250 -0.0000 -0.0000 10.1829 -55.9428 -2.7541
